<svg xmlns="http://www.w3.org/2000/svg" viewBox="0 0 480.63 749.6"><defs><style>.cls-1{fill:#373a3c;}</style></defs><title>Asset 2</title><g id="Layer_2" data-name="Layer 2"><g id="State"><polygon class="cls-1" points="12.72 663.67 12.96 663.19 13.2 663.19 14.16 662.47 15.36 662.47 15.6 662.23 15.6 661.99 16.8 660.55 17.28 659.11 17.52 658.87 16.8 656.71 16.56 655.75 17.04 655.03 18.48 652.87 18.72 652.87 20.16 652.14 21.12 652.63 21.84 653.59 22.08 654.07 22.32 655.27 23.04 655.75 24 655.27 24.48 655.27 25.43 654.31 25.91 653.59 26.16 653.59 26.39 653.11 26.88 652.14 27.11 650.95 27.84 650.71 29.04 650.95 29.52 651.67 30.23 652.39 31.19 652.87 32.39 652.63 33.35 652.14 34.07 651.19 34.31 649.51 34.31 649.27 34.31 646.39 34.31 646.14 34.55 645.9 34.55 645.42 35.51 643.02 35.51 642.78 35.75 642.3 35.75 642.07 37.91 639.66 38.15 639.42 38.15 639.18 39.11 638.7 39.35 638.7 41.99 637.75 42.23 637.75 42.23 637.5 42.47 637.26 44.63 634.38 45.11 633.66 45.59 632.94 45.83 632.7 46.07 632.23 47.27 630.54 47.27 629.58 47.51 629.1 47.51 628.14 47.51 627.9 47.75 626.22 47.99 625.74 47.99 625.5 48.23 625.26 49.43 624.3 49.43 623.58 48.71 622.38 47.75 621.18 47.51 619.98 47.51 619.74 48.23 618.3 48.71 618.06 49.43 617.58 51.83 617.34 54.95 615.9 57.11 613.98 59.27 613.26 59.27 613.02 60.23 612.3 60.71 611.58 60.95 610.38 60.47 609.66 59.75 606.06 61.19 603.66 61.43 603.18 61.19 602.46 61.19 601.02 62.87 597.9 63.35 597.18 64.07 596.94 64.31 596.94 64.55 596.94 65.03 596.7 65.27 596.22 65.27 595.5 65.03 594.78 64.79 594.06 65.03 593.34 65.51 591.42 65.75 589.98 65.75 588.54 65.75 588.3 65.99 587.82 65.99 587.58 66.23 587.34 66.47 586.86 68.63 584.22 69.83 582.54 74.15 581.34 76.79 580.62 78.47 579.66 78.71 579.42 78.94 579.42 79.19 579.18 79.42 578.94 80.39 577.26 80.63 577.02 80.86 576.3 81.11 573.42 82.31 571.5 82.55 571.02 83.03 570.06 83.5 569.58 83.98 568.86 84.22 568.38 83.75 565.74 83.75 565.5 83.98 564.78 83.98 563.82 84.22 561.66 80.39 555.42 79.91 554.94 79.67 554.22 79.91 553.74 80.63 552.77 80.39 552.06 79.91 548.7 78.71 547.98 78.47 547.74 76.31 546.54 75.83 545.82 76.79 543.65 77.27 540.77 77.27 539.82 78.71 538.62 79.67 537.65 81.11 534.77 81.11 534.29 81.34 532.85 81.58 530.93 81.83 530.21 81.83 529.73 82.06 528.77 81.83 528.53 81.58 528.29 81.34 528.05 79.91 526.13 79.42 525.65 77.51 524.69 76.55 524.21 72.47 522.29 72.47 522.05 72.23 519.89 72.47 519.65 73.67 516.77 73.67 516.53 72.95 513.89 73.19 511.25 73.19 509.57 71.75 507.89 71.51 507.41 71.03 506.69 70.07 505.73 69.83 505.25 68.87 505.01 68.15 504.77 67.43 504.29 66.95 503.33 66.95 502.61 66.95 502.37 66.47 501.41 65.75 501.17 65.03 500.69 64.79 500.69 64.55 500.21 64.55 499.49 64.55 498.77 64.79 498.05 63.11 496.13 62.87 494.69 62.63 493.01 63.11 491.09 63.11 490.85 63.35 490.13 63.59 488.93 64.31 488.69 66.47 487.49 68.63 485.57 71.03 483.17 71.51 482.69 72.71 480.77 73.19 479.33 72.47 476.69 71.99 474.77 70.55 474.05 68.87 471.89 68.87 471.65 68.63 471.41 68.15 468.29 68.15 467.57 69.59 465.41 69.59 465.17 69.83 464.93 69.83 464.69 69.83 464.45 69.83 464.21 69.59 461.81 70.31 459.89 71.03 458.21 71.03 457.97 71.27 457.73 71.51 457.73 72.47 456.77 72.71 456.53 72.95 456.53 74.15 456.53 74.39 456.53 76.07 456.53 76.31 456.53 76.79 455.57 77.03 455.57 77.75 454.37 79.42 455.09 79.42 455.33 79.67 441.88 79.67 438.76 79.67 438.52 79.67 438.28 79.67 436.36 79.67 433 79.67 432.52 79.67 431.08 79.67 429.4 79.67 428.44 79.67 427.72 79.67 422.92 79.67 421.72 79.67 420.28 79.67 418.36 79.67 418.12 79.67 414.76 79.67 412.12 79.67 406.84 79.67 401.32 79.67 399.4 79.67 396.04 79.67 390.52 79.67 387.64 79.67 383.56 79.67 380.92 79.67 374.2 79.67 371.32 79.67 369.88 79.67 368.68 79.67 366.28 79.91 355.24 79.91 349.95 79.91 343.24 79.91 343 79.91 341.56 79.91 338.67 79.91 337.95 79.91 337.47 79.91 335.79 79.91 335.55 80.14 333.63 80.14 333.39 80.14 331.23 80.14 330.99 80.14 322.35 80.14 313.95 80.14 311.31 80.39 308.43 80.39 306.51 80.39 306.27 80.39 305.55 80.39 301.47 80.39 300.27 80.39 297.39 80.39 296.91 80.39 295.95 80.63 293.07 80.63 289.95 80.63 289.23 80.63 286.59 80.63 286.35 80.63 282.27 80.86 276.51 80.86 271.47 80.86 268.11 81.11 260.67 81.34 246.75 81.34 244.34 81.34 244.1 81.34 241.46 81.34 233.3 81.34 233.06 81.34 227.78 81.34 225.14 81.58 224.42 81.58 219.62 81.58 216.02 81.58 211.7 81.58 204.26 81.58 195.38 81.58 192.98 81.58 191.06 81.58 187.94 81.83 185.06 81.83 180.5 81.83 174.02 81.83 173.54 81.83 171.62 81.83 168.74 81.83 168.5 81.83 166.1 81.83 165.86 81.83 163.94 81.83 163.7 81.83 162.74 81.83 157.94 81.83 156.5 81.83 149.29 81.83 146.18 81.83 144.25 81.83 141.61 81.83 130.57 81.83 129.85 81.83 128.65 81.83 123.61 81.83 120.25 81.83 118.33 82.06 117.37 82.06 116.41 82.06 116.17 82.06 115.69 82.06 115.21 82.06 113.05 82.06 111.85 82.06 109.93 82.06 107.05 82.06 100.81 82.06 98.89 82.06 93.37 82.06 90.49 82.06 82.33 82.06 81.85 82.06 81.61 82.06 81.13 82.06 80.89 82.06 79.69 82.31 76.57 82.31 75.61 82.31 75.37 82.31 75.13 82.31 74.41 82.31 73.21 82.31 70.09 82.31 64.81 82.31 63.37 82.31 61.45 82.31 58.33 82.31 58.09 82.31 57.37 82.31 56.65 82.55 54.73 82.55 53.77 82.55 53.28 82.55 53.05 82.55 52.56 82.55 51.13 82.55 48.48 82.55 47.52 82.55 47.28 82.55 47.04 82.55 46.56 82.55 46.08 82.55 45.36 82.55 45.12 82.55 44.64 82.55 44.16 82.55 43.92 82.55 43.68 82.55 42.48 82.55 42.24 82.55 42 82.55 41.76 82.55 40.8 82.55 39.6 82.55 39.36 82.55 38.4 82.55 38.16 82.55 37.68 82.55 37.44 82.55 37.2 82.55 36.48 82.55 35.76 82.55 35.52 82.55 35.04 82.55 34.8 82.55 34.32 82.55 33.84 82.78 32.88 82.78 32.64 82.78 32.4 82.78 32.16 82.78 31.44 82.78 31.2 82.78 30.48 82.78 29.76 82.78 29.28 82.78 28.32 82.78 27.84 82.78 27.6 82.78 25.68 82.78 24.72 82.78 24.24 82.78 23.52 82.78 23.04 82.78 22.8 82.78 19.92 82.78 18.24 82.78 17.76 82.78 16.8 82.78 16.08 82.78 15.6 82.78 14.88 82.78 14.4 82.78 14.16 82.78 13.92 82.78 13.68 83.27 13.44 83.98 14.64 84.7 16.08 85.42 16.8 86.14 17.28 87.34 18.48 90.22 20.4 91.42 19.92 92.38 20.16 92.86 20.4 93.82 21.12 94.3 20.64 94.78 20.88 95.02 21.12 95.26 21.6 95.5 21.84 95.74 22.8 94.78 24 95.5 24.96 95.98 25.44 96.94 26.16 99.1 26.64 101.02 27.12 104.62 28.32 105.1 28.56 105.58 28.56 106.06 28.8 110.86 29.76 115.9 30 117.34 30.48 119.5 30.24 120.94 30.24 125.02 29.76 125.26 29.52 127.9 29.04 130.06 28.56 130.54 28.32 131.74 28.08 133.66 27.12 133.66 25.68 136.06 25.2 138.69 24.72 139.41 25.68 145.41 23.28 146.85 22.56 147.09 22.56 152.37 20.16 155.01 18.96 155.25 18.72 164.85 13.92 165.33 13.68 165.81 13.44 168.69 10.56 168.93 10.32 173.73 8.4 179.01 5.28 180.93 4.08 182.13 4.08 182.85 4.08 183.57 4.08 184.05 4.08 184.29 4.08 186.93 4.08 187.16 4.08 191.25 4.08 191.49 4.08 191.72 4.08 195.32 4.08 198.44 4.08 202.52 4.08 206.6 4.08 209.24 4.08 214.76 4.08 216.2 4.08 218.6 4.08 218.84 4.08 222.92 4.08 223.64 4.08 226.04 4.08 232.52 4.08 236.6 3.84 238.28 3.84 246.19 3.84 247.16 3.84 248.59 3.84 251.95 3.84 252.67 3.84 253.87 3.84 258.19 3.6 259.15 3.6 260.59 3.6 261.07 3.6 262.03 3.6 262.27 3.6 262.51 3.6 263.47 3.6 263.95 3.6 264.67 3.6 265.87 3.6 269.95 3.6 271.15 3.6 278.35 3.36 278.83 3.36 281.23 3.36 287.47 3.36 290.59 3.36 295.87 3.36 296.11 3.36 296.59 3.36 296.83 3.36 297.55 3.36 299.7 3.36 299.94 3.36 304.26 3.36 310.74 3.12 311.94 3.12 313.38 3.12 313.86 3.12 314.34 3.12 317.7 3.12 319.14 3.12 322.74 3.12 325.62 3.12 327.78 3.12 328.02 3.12 331.38 2.88 334.5 2.88 334.98 2.88 343.62 2.88 343.86 2.88 345.3 2.64 345.78 2.64 347.7 2.64 348.89 2.64 349.14 2.64 351.06 2.64 351.3 2.64 362.81 2.4 363.77 2.4 364.01 2.4 368.09 2.16 375.77 2.16 376.49 2.16 379.13 1.92 383.21 1.92 384.65 1.92 385.61 1.92 386.57 1.92 387.29 1.92 390.17 1.68 391.85 1.68 393.29 1.68 394.49 1.68 395.45 1.68 398.09 1.68 398.33 1.68 403.85 1.44 408.88 1.44 411.76 1.44 412.24 1.44 419.2 1.2 419.92 1.2 424.72 0.96 428.08 0.96 429.52 0.96 430.72 0.96 430.96 0.96 433.6 0.72 437.68 0.72 440.08 0.72 440.32 0.72 441.76 0.72 444.4 0.48 445.84 0.48 455.92 0.24 460.95 0 461.68 0 463.6 0 463.6 3.12 463.6 4.32 463.6 5.04 463.83 7.44 463.83 9.84 463.83 10.8 463.83 12 463.83 13.2 463.83 16.08 464.07 20.16 464.31 24 464.31 26.4 464.31 26.88 464.31 27.6 464.56 32.64 464.8 40.8 464.8 42.96 465.04 46.32 465.04 48.48 465.04 50.88 465.27 55.2 465.27 59.05 465.51 60.73 465.51 62.41 465.51 65.29 465.51 65.77 465.75 73.45 465.75 75.61 465.99 78.73 465.99 81.37 466.23 91.45 466.48 95.05 466.71 107.53 466.71 109.69 466.71 111.37 466.95 112.09 466.95 113.29 466.95 115.93 466.95 117.85 466.95 119.53 467.19 124.09 467.19 125.53 467.19 127.69 467.67 140.41 467.67 144.25 468.15 156.74 468.15 160.58 468.63 173.06 468.63 174.5 468.63 176.9 468.87 179.54 468.87 182.66 468.87 184.82 468.87 186.02 469.11 189.38 469.11 190.34 469.11 192.98 469.11 194.9 469.35 197.78 469.35 199.94 469.35 200.42 469.35 203.06 469.35 205.7 469.59 206.42 469.59 208.58 469.59 209.54 469.83 217.7 469.83 222.26 470.07 225.86 470.07 230.42 470.07 234.02 470.07 235.46 470.07 238.58 470.07 240.5 470.07 241.94 470.07 242.18 470.07 242.66 470.31 245.54 470.31 251.31 470.31 252.27 470.31 252.75 470.31 253.95 470.31 254.91 470.55 258.03 470.55 263.31 470.79 271.23 471.03 272.67 471.03 279.15 471.03 287.31 471.03 287.55 471.03 289.71 471.03 289.95 471.03 290.19 471.03 291.39 471.03 291.63 471.03 291.87 471.03 292.11 471.03 292.35 471.03 293.31 471.03 293.55 471.03 295.47 471.03 295.71 471.03 305.07 471.27 305.55 471.27 309.15 471.27 312.03 471.27 320.19 471.27 322.83 471.27 325.71 471.27 328.35 471.27 330.27 471.51 334.11 471.51 334.35 471.51 343 471.51 343.95 471.51 344.92 471.51 347.56 471.75 349.48 471.75 349.71 471.75 353.08 471.75 356.68 471.75 357.16 471.75 357.4 471.75 358.6 471.75 360.52 471.75 361 471.75 361.48 471.75 361.72 471.75 362.2 471.75 364.12 471.75 364.6 471.75 366.76 471.99 369.16 471.99 369.4 472.23 377.32 472.23 380.44 472.47 389.08 472.47 391.24 472.47 393.64 472.47 394.12 472.47 396.28 472.47 396.76 472.71 398.68 472.71 404.92 472.71 405.16 472.71 409 472.71 409.24 472.71 409.96 472.95 410.2 472.95 410.44 472.95 410.68 472.95 410.92 472.95 413.8 472.95 418.84 472.95 420.76 473.19 424.12 473.19 426.76 473.19 427 473.19 435.4 473.43 443.08 473.43 451.01 473.43 458.45 473.43 459.41 473.43 464.69 473.67 465.65 473.67 465.89 473.67 466.13 473.67 466.37 473.67 467.09 473.67 467.33 473.67 468.29 473.67 468.53 473.67 468.77 473.67 469.25 473.67 469.49 473.67 469.97 473.67 470.69 473.67 473.33 473.67 473.81 473.67 474.53 473.67 475.25 473.67 475.49 473.91 479.57 474.15 486.29 474.15 486.77 474.15 488.45 474.15 489.17 474.15 491.57 474.15 492.29 474.15 492.53 474.15 493.97 474.15 495.41 474.15 496.61 473.43 496.85 472.71 497.33 471.99 498.05 471.51 498.53 471.03 499.01 470.79 499.25 470.55 499.49 470.07 499.97 469.83 500.21 469.59 500.45 468.39 501.89 466.95 502.85 464.56 504.29 463.83 505.01 463.36 505.73 463.36 505.97 463.36 506.45 463.36 506.93 463.83 507.41 464.31 508.61 464.56 509.09 464.8 509.33 465.51 510.29 466.23 510.77 467.19 511.73 467.43 511.73 467.43 511.97 467.67 511.97 468.15 512.93 469.35 514.37 470.31 515.81 470.55 516.29 470.79 517.01 471.99 517.97 472.23 518.69 472.95 519.89 473.43 521.09 473.43 521.33 473.43 522.05 473.19 523.73 472.95 523.73 472.95 523.97 472.71 524.21 471.75 525.17 471.75 525.41 471.51 525.65 470.79 526.37 470.31 526.85 469.59 527.57 468.63 528.77 468.39 528.77 467.67 529.73 466.71 531.41 466.48 531.89 466.48 532.37 466.48 532.85 466.71 532.85 466.95 533.57 467.43 534.29 467.91 535.01 467.91 535.25 468.15 535.49 468.39 535.49 468.87 535.49 469.11 535.73 469.35 535.73 473.67 535.73 475.35 535.98 476.31 535.98 476.79 536.21 477.27 536.45 477.99 536.69 478.23 536.69 478.47 536.69 478.71 536.93 479.91 537.89 480.15 538.38 480.39 538.38 480.39 538.62 480.63 539.58 480.39 540.53 480.39 540.77 480.15 541.01 480.15 541.73 479.91 541.98 479.67 542.22 479.43 542.7 479.19 542.93 477.99 544.14 476.55 545.1 476.07 545.58 475.83 545.58 475.35 546.05 475.11 546.3 475.11 546.54 474.39 547.25 474.15 547.98 474.15 548.22 474.15 548.93 474.63 550.38 476.31 552.77 476.55 553.74 477.03 555.18 477.03 555.42 477.03 555.66 477.03 555.9 476.79 556.14 476.79 556.38 476.55 556.62 475.59 556.86 474.63 556.86 473.43 556.86 471.75 556.14 470.31 555.66 469.11 555.42 467.43 555.18 466.48 555.18 465.75 554.94 465.04 555.18 464.56 555.42 463.83 555.9 463.6 555.9 462.88 556.38 462.15 556.86 461.92 557.1 459.27 558.3 458.08 558.78 457.12 558.78 454.96 558.3 452.56 558.3 452.32 558.3 451.36 558.3 450.88 558.3 450.4 558.54 450.16 558.78 449.92 558.78 449.44 559.02 447.76 560.7 446.08 561.66 444.64 562.38 443.68 562.86 442.48 563.82 441.52 564.54 440.8 564.78 440.32 565.02 439.12 565.5 438.4 565.98 437.68 566.7 435.76 567.9 435.52 567.9 434.8 568.38 434.56 568.62 434.08 569.34 434.08 569.58 433.12 570.54 432.4 571.02 431.92 571.5 430.96 572.22 430.24 573.18 429.52 573.66 428.32 574.38 426.88 575.1 424.48 575.82 424 575.82 423.52 575.82 422.32 576.06 422.08 576.06 421.84 576.06 420.4 575.34 419.92 575.34 418.72 574.62 418.48 574.62 417.52 573.66 417.28 573.66 416.56 572.7 414.64 569.58 414.16 568.86 413.68 567.9 413.2 567.66 411.76 566.94 410.32 566.46 409.37 566.22 409.13 566.22 407.2 565.98 406.25 566.22 404.81 566.22 401.21 567.18 400.97 567.42 400.73 567.42 400.25 567.66 399.77 567.9 398.09 568.14 396.41 568.38 396.41 568.62 396.17 568.62 395.93 568.62 395.45 568.62 395.21 568.62 394.97 568.38 394.25 568.38 393.29 568.14 391.85 567.66 391.37 567.66 390.89 567.66 390.65 567.42 389.45 567.42 388.73 567.66 387.77 567.9 387.53 568.14 386.09 568.86 385.61 569.58 384.89 570.54 384.89 570.78 383.93 571.98 383.45 572.7 382.97 575.34 382.97 575.82 382.97 576.54 382.97 577.26 383.21 577.74 383.45 577.98 384.65 579.9 385.61 582.06 385.85 583.98 385.85 584.46 385.85 585.42 385.61 587.1 385.85 591.18 385.85 591.42 385.85 592.14 386.09 592.86 386.33 593.34 386.57 594.06 387.53 595.74 388.73 597.9 389.21 599.82 389.45 599.82 389.45 600.06 389.45 601.26 389.45 603.18 389.21 604.14 389.21 604.38 388.49 605.82 388.01 606.3 387.05 607.26 385.61 607.98 383.21 609.18 382.73 609.42 382.49 609.66 382.01 609.9 381.77 610.14 381.53 610.38 381.29 610.62 381.05 611.1 380.57 612.3 380.33 612.54 380.33 612.78 380.33 613.02 380.09 613.98 379.85 614.22 379.85 614.46 379.85 614.7 378.65 616.62 377.69 617.82 377.45 617.82 377.21 618.06 376.49 618.3 375.53 618.78 374.81 619.26 374.33 619.5 374.09 619.5 373.61 619.74 373.37 619.74 371.93 620.22 370.97 620.46 369.53 620.7 368.09 620.7 366.17 620.94 364.49 621.42 362.09 623.1 361.61 623.58 359.69 626.7 359.69 626.94 359.69 627.18 359.69 627.66 359.45 627.9 359.45 628.14 358.49 630.54 358.25 630.54 358.25 631.26 358.01 631.74 358.01 631.98 357.29 634.14 357.29 634.38 357.29 634.63 357.29 635.35 357.29 637.26 357.29 637.5 357.29 638.23 357.06 639.18 356.33 640.87 356.1 641.59 356.1 641.83 356.1 642.07 355.62 643.5 355.38 643.75 355.13 644.71 354.89 644.95 354.42 645.9 354.18 646.14 353.45 647.11 353.21 647.59 352.98 647.83 352.26 649.02 352.26 649.27 352.02 649.51 352.02 649.75 351.77 649.75 350.81 650.71 350.34 650.95 348.42 652.14 347.94 652.39 346.74 653.11 346.02 653.59 344.58 654.55 343.62 655.03 342.66 655.75 342.42 655.75 341.94 655.99 340.98 655.99 340.74 655.99 339.54 655.03 338.58 654.07 338.82 653.83 338.82 653.59 337.62 652.63 337.14 652.39 336.42 652.14 334.98 652.14 334.5 652.39 334.26 652.63 333.3 652.87 332.1 653.11 331.38 653.35 330.18 653.83 329.46 654.55 328.98 655.27 328.5 655.99 328.26 658.15 328.26 658.63 328.26 658.87 328.26 659.35 328.02 659.83 328.02 660.31 328.02 661.27 327.54 662.47 327.3 662.95 327.06 663.19 326.34 664.39 326.34 664.63 325.86 664.87 325.62 665.11 323.7 666.55 322.98 667.51 322.02 668.23 319.86 671.11 319.62 671.83 319.14 672.79 319.14 673.03 317.94 676.15 317.94 680.23 318.42 684.55 318.66 685.51 318.66 687.67 318.66 688.39 318.42 690.31 317.46 692.71 317.22 693.67 317.22 693.91 317.22 694.15 316.98 694.63 316.98 694.87 316.74 696.31 316.74 698.71 316.5 699.19 316.5 700.39 316.26 701.11 315.78 702.07 315.06 703.03 314.58 703.75 313.86 704.47 313.62 704.47 312.42 705.19 311.94 705.43 311.7 705.43 311.46 705.43 310.98 705.67 310.74 705.67 308.34 705.91 305.46 706.39 305.22 706.63 304.98 706.63 303.54 706.87 301.87 707.35 300.9 707.83 300.43 707.83 300.43 708.07 300.19 708.31 299.94 708.31 299.94 708.55 299.7 709.27 299.7 709.51 299.7 709.99 299.94 712.15 299.94 713.11 299.7 713.35 299.7 713.59 299.7 713.83 299.46 713.83 299.46 714.07 299.23 714.07 298.99 714.31 298.75 714.31 298.75 714.55 298.75 714.31 298.26 714.31 298.02 714.31 297.79 714.07 297.55 714.07 297.55 713.83 297.06 713.59 296.83 713.35 296.35 712.87 296.11 712.39 295.87 711.91 295.63 711.67 295.39 711.19 294.91 710.23 294.19 709.03 293.71 707.83 293.95 707.59 293.71 707.11 293.47 707.11 292.99 706.39 292.75 706.39 292.51 706.15 292.03 705.91 292.03 705.67 291.79 705.67 290.59 704.95 290.35 704.95 290.11 704.71 288.91 704.23 287.23 703.75 286.75 703.75 286.03 703.75 285.55 703.75 285.31 703.75 285.07 703.75 284.59 703.75 283.87 703.75 283.63 703.99 282.43 704.23 281.95 704.47 280.51 704.71 280.03 704.95 279.79 704.95 279.31 704.95 278.35 704.71 276.91 703.75 276.67 703.75 275.95 703.51 275.71 703.27 275.23 703.03 274.99 703.03 274.27 702.79 272.11 701.59 271.39 700.63 270.19 699.43 267.79 698.23 267.31 697.99 266.35 697.27 266.11 697.03 265.39 696.31 265.15 696.07 264.43 694.63 264.19 694.39 263.47 690.31 263.47 688.63 263.47 688.39 263.47 688.15 263.71 687.19 264.19 684.79 264.19 684.55 264.43 683.59 264.43 682.63 264.43 682.39 264.43 681.19 263.47 679.51 262.03 677.35 259.39 675.67 258.91 675.91 258.43 675.91 257.47 676.39 256.51 677.59 256.51 678.07 256.75 679.51 256.75 680.95 256.27 681.91 256.03 682.15 255.07 682.87 254.83 682.87 252.43 683.11 249.07 682.63 248.59 682.87 247.39 683.83 246.44 685.75 246.19 686.95 245.24 687.43 244.75 687.19 243.07 685.27 242.84 685.03 241.4 684.07 240.92 683.59 240.68 683.59 238.04 683.35 237.08 683.83 236.36 684.79 236.12 684.79 235.88 685.75 235.64 687.19 236.12 688.15 236.84 689.11 238.76 690.07 240.44 690.79 241.16 692.47 240.68 694.39 240.68 694.63 239.96 695.83 237.8 697.75 234.92 698.47 233.72 698.71 232.28 698.71 230.84 698.71 229.16 698.95 228.2 699.19 227.96 699.43 227.72 699.91 227.24 701.83 227.24 702.07 227.24 703.75 227.24 704.71 227 705.91 227 707.59 227.24 710.71 227.24 713.11 227.48 714.31 227.96 715.75 228.2 716.23 229.16 717.19 229.4 717.91 229.64 717.91 229.64 718.39 229.88 719.11 229.88 720.07 229.88 720.55 229.64 720.55 229.4 720.79 229.4 721.03 229.16 721.03 228.2 721.75 227.24 722.23 227 722.23 226.76 722.47 226.04 722.71 224.84 722.71 224.6 722.71 223.88 722.47 221.24 721.75 219.08 721.51 218.12 721.75 217.88 721.99 216.92 723.19 216.68 723.19 216.68 723.43 216.44 723.91 216.2 724.63 216.2 724.87 216.2 725.59 216.2 725.83 216.44 728.71 216.44 728.95 216.44 729.67 216.2 730.63 216.68 731.35 216.68 731.6 216.44 732.07 215.48 733.75 214.76 734.23 214.04 734.71 212.36 735.91 211.4 736.39 211.16 736.39 210.68 736.63 209.24 736.88 208.52 736.88 208.04 736.63 207.56 736.39 207.08 735.43 207.08 734 207.08 733.03 207.56 731.83 209 728.71 209.48 727.03 209.72 726.31 209.72 725.59 209.72 725.35 209.48 725.11 209.48 724.87 209.48 724.63 209.24 724.63 209.24 724.39 209 724.39 208.76 724.15 208.76 723.91 207.08 723.67 205.64 723.19 205.4 723.19 204.2 723.19 203.48 723.67 202.52 724.39 200.84 725.83 200.12 726.31 198.92 727.03 198.68 727.27 198.44 727.27 198.2 727.27 198.2 727.51 197.96 727.27 196.76 727.03 196.28 726.79 196.04 726.55 195.8 726.07 195.56 725.83 195.08 725.11 194.6 724.39 193.88 723.67 193.16 722.47 193.16 722.23 192.92 721.99 191.72 720.07 191.72 719.83 191.49 719.35 190.76 718.15 190.28 717.19 190.28 716.95 190.04 716.47 189.56 715.51 189.32 715.27 189.09 714.31 188.37 712.39 187.88 711.19 187.16 709.51 186.45 708.79 185.97 708.55 185.49 708.31 185.01 707.83 184.53 707.83 184.53 707.59 184.29 707.59 184.05 707.59 183.81 707.59 183.57 707.59 183.09 707.59 181.41 708.55 179.25 709.27 178.29 709.75 177.09 710.71 176.61 711.19 176.13 712.15 175.41 712.87 174.45 713.59 173.97 714.07 173.01 715.51 173.01 715.75 171.33 717.43 170.85 717.91 170.61 718.15 169.89 718.63 169.17 719.11 168.93 719.11 168.93 719.35 167.97 719.59 167.73 719.59 166.77 719.59 165.09 719.83 162.21 720.07 161.49 720.07 160.05 720.55 156.45 721.99 155.49 722.47 154.29 723.19 154.05 723.43 152.13 724.87 151.89 724.87 151.89 725.11 151.65 725.35 151.17 725.83 150.93 726.31 150.69 726.55 150.45 727.03 150.21 727.27 150.21 727.51 150.21 727.99 150.21 728.48 150.21 728.71 150.45 729.19 150.45 729.91 150.45 730.63 150.69 730.63 150.69 730.87 150.45 731.6 149.73 733.75 149.25 734.71 149.01 736.63 148.77 738.32 148.29 739.75 147.33 742.88 146.85 743.6 146.85 743.84 146.85 744.08 146.61 744.32 146.37 744.56 145.89 745.04 145.41 745.52 144.69 746.24 143.49 747.2 142.05 747.68 140.61 748.15 140.37 748.15 139.89 748.15 139.17 748.15 138.94 747.92 138.69 747.92 137.97 747.68 137.97 747.44 137.74 747.44 137.74 747.2 137.25 746.24 136.53 743.6 135.81 741.92 134.38 739.27 134.38 739.03 134.13 738.79 133.41 737.84 132.94 737.35 132.46 737.12 131.74 736.88 130.3 737.12 126.94 736.63 125.5 736.15 124.3 735.67 119.26 732.31 118.06 731.11 117.82 730.87 117.34 730.15 117.1 730.15 116.86 729.91 116.62 729.67 116.38 729.19 116.14 729.19 112.06 726.31 109.9 725.35 109.66 725.11 107.74 724.63 107.5 724.63 107.26 724.63 106.3 724.15 105.82 723.91 104.62 722.95 104.38 722.71 103.9 722.23 103.42 722.23 103.18 721.99 101.74 720.55 101.74 720.31 101.98 720.07 101.74 720.07 100.54 719.35 99.58 719.11 99.1 718.87 98.86 718.87 97.66 718.39 97.42 718.15 96.94 718.15 95.98 717.91 95.74 717.91 95.5 717.67 95.02 717.67 94.3 717.67 93.58 717.67 92.38 717.67 90.7 718.15 90.46 718.15 90.22 718.39 89.74 718.63 88.06 719.59 88.06 719.83 87.34 720.31 85.66 721.75 85.42 721.75 84.94 722.23 84.7 722.47 84.22 722.95 82.78 724.39 82.06 724.63 81.83 724.63 81.11 724.87 79.91 723.67 78.47 722.95 78.23 722.95 76.07 721.75 75.83 721.51 75.35 721.27 74.87 720.79 74.39 720.31 74.15 720.07 73.67 719.59 73.19 718.87 72.71 718.15 72.23 717.19 71.99 715.75 71.99 715.27 71.99 714.31 71.99 713.35 71.51 712.63 71.03 712.15 70.31 711.91 70.07 711.67 69.83 711.67 69.59 711.67 69.11 711.67 68.63 711.91 67.91 712.39 67.67 713.11 67.43 713.35 67.43 713.59 67.43 713.83 67.43 714.55 67.67 714.79 67.19 716.71 66.47 717.67 65.27 718.63 64.31 719.59 63.83 720.79 63.83 721.03 63.83 721.99 64.07 722.71 64.31 722.95 64.55 723.91 64.79 723.91 64.79 724.15 65.03 724.63 65.27 724.63 66.95 726.07 67.91 726.79 68.63 727.27 68.63 727.51 69.35 728.23 69.59 729.67 69.59 730.39 69.83 731.83 69.83 733.27 69.59 733.27 69.35 734 68.63 734.95 68.39 735.43 67.19 737.12 66.95 737.35 66.95 737.6 66.23 738.32 65.99 738.32 65.75 738.55 65.51 738.79 64.31 739.27 62.87 739.52 62.63 739.52 62.39 739.52 61.19 739.75 60.47 739.75 59.99 739.75 59.75 739.75 59.51 739.75 59.27 739.52 58.07 739.52 57.83 739.27 57.35 739.27 57.35 739.03 57.11 739.03 56.87 738.79 56.87 738.55 56.63 738.32 56.39 737.84 56.15 736.88 55.91 735.91 55.91 734 56.87 732.31 57.11 731.83 57.83 731.11 58.31 730.63 58.55 730.15 58.79 729.43 58.79 728.48 58.55 727.03 58.31 726.55 57.59 726.07 56.87 725.59 56.87 725.35 56.39 725.35 56.15 725.35 55.67 725.11 55.43 725.35 55.19 725.35 54.95 725.35 54.71 725.59 53.27 726.31 53.03 726.31 51.59 727.03 50.63 727.27 50.15 727.27 49.91 727.27 49.67 727.27 49.19 727.03 48.23 726.79 47.27 726.79 46.55 727.03 45.35 727.27 44.87 727.27 44.15 727.51 42.71 728.23 42.47 728.71 41.51 729.43 41.03 729.67 40.79 729.91 40.55 730.15 39.83 730.39 39.11 730.39 37.19 730.39 36.47 730.39 35.99 730.15 34.79 730.15 33.83 730.15 33.59 729.91 33.35 729.91 32.87 729.43 32.39 728.95 32.39 728.71 32.39 727.99 31.91 727.27 31.67 727.03 30 725.59 29.75 725.11 29.04 723.43 28.79 722.95 28.55 722.71 28.07 721.99 27.84 721.75 27.59 721.75 27.59 721.51 27.11 721.27 27.11 721.03 26.39 720.79 26.16 720.79 25.43 720.55 24.71 720.31 24.48 720.31 24 720.55 23.04 721.03 22.8 721.27 20.88 723.67 20.4 724.15 19.68 725.35 19.44 725.35 19.44 725.59 18.96 726.07 18.24 727.03 18 727.27 17.76 727.75 17.52 728.48 17.52 728.71 17.52 729.19 17.52 729.43 17.52 729.67 17.76 730.15 17.76 730.39 17.76 730.63 18 731.11 18.24 731.6 19.44 733.27 21.36 734.95 22.08 736.15 22.32 737.35 23.04 740.96 23.04 741.2 22.8 741.92 22.56 742.88 21.84 743.36 20.64 743.84 19.44 744.32 19.2 744.32 18.96 744.56 18.72 744.8 18.48 744.8 18.24 745.27 18.24 745.76 18.24 746.24 17.76 746.48 17.04 748.64 16.8 748.88 16.56 749.12 16.32 749.36 15.6 749.6 14.64 749.36 14.64 749.12 13.44 748.15 12.96 747.68 12.72 747.2 12.24 746.48 11.04 745.76 10.56 745.76 10.08 745.27 9.6 745.04 9.12 744.56 7.92 744.08 6.48 743.84 5.52 743.84 4.56 744.32 4.32 743.36 2.88 743.12 1.92 742.63 1.44 742.15 1.44 741.92 0.96 741.43 0.96 740.72 1.2 740 1.44 739.27 2.16 738.32 2.4 737.35 2.16 736.39 1.44 735.91 1.2 735.43 0.96 735.2 0.48 733.75 0 731.83 0.48 730.63 0.72 729.67 0.96 729.19 1.44 728.71 2.4 727.75 3.6 726.79 3.84 726.55 4.08 725.11 3.36 722.95 3.12 722.71 2.4 720.79 2.4 720.31 3.6 717.43 3.84 717.19 4.8 715.99 6.24 714.07 6.96 713.11 7.2 710.95 5.28 705.43 5.04 704.71 4.8 702.31 4.56 702.07 5.04 700.87 5.28 699.67 5.52 699.43 6 697.99 7.68 697.51 8.4 697.27 10.56 696.31 11.28 693.91 11.04 692.47 9.84 691.27 9.6 690.55 9.36 689.83 9.36 687.91 10.32 686.71 10.56 685.99 12.96 684.07 13.2 684.07 14.4 683.83 17.28 683.11 17.76 682.63 18 682.39 18.72 681.67 18.96 681.43 19.68 680.71 20.4 679.75 20.88 679.03 20.88 678.07 20.88 677.59 20.64 676.87 20.4 676.39 19.92 675.43 18.72 674.71 15.36 672.31 12.96 669.91 11.76 667.51 11.76 666.55 12 665.35 12.48 664.39 12.48 664.15 12.72 663.67"/></g></g></svg>